<?xml version="1.0" encoding="utf-8"?>
<!-- Generator: Adobe Illustrator 24.1.3, SVG Export Plug-In . SVG Version: 6.00 Build 0)  -->
<svg version="1.1" id="Ebene_1" xmlns="http://www.w3.org/2000/svg" xmlns:xlink="http://www.w3.org/1999/xlink" x="0px" y="0px"
	 viewBox="0 0 256 256" style="enable-background:new 0 0 256 256;" xml:space="preserve">
<style type="text/css">
	.st0{fill:#FFFFFF;}
</style>
<path class="st0" d="M19.8,110.7c-4.7,3.2-8.2,5.9-10.8,9.2c-1.4-4.5-2.2-9.3-2.2-14.2c0-9.4,2.8-18.1,7.6-25.4H21l0.3-1
	c1.5-5.9,3-9.4,4.4-10.5c3.1-2.5,6.7-3.7,10.7-3.7s7.2,1.2,9.7,3.6s3.9,5.5,4.2,9.5c0.6,8.8-1.4,12.9-15.2,22.6
	C35.1,100.7,25.1,107.2,19.8,110.7z M87.8,98.7c-1.4-2.5-3.6-3.7-6.5-3.7c-6.1,0-10.7,5.9-15,17.5c-4.5,12-6.7,23.6-6.7,34.6
	c0,1.7,0.1,3.2,0.3,4.6c9.3-1.4,17.7-5.5,24.3-11.5c3.5-10.5,5.2-20.6,5.2-30.3C89.4,104.9,89.3,101.2,87.8,98.7z M44.3,126.9
	c1.7-8,5.1-15.3,10.1-21.9C62,95.2,72,90.3,82.2,90.3c7,0,12.4,2.2,16.3,6.5c-4-21.1-22.5-37.1-44.7-37.4c2.2,0.4,4.3,1.2,6.1,2.5
	c4.5,3,7.7,7.6,8.8,14.8c0.6,3.7-0.1,6.9-1.3,9.8c-1.8,4.5-5.3,8.4-18.9,15.3c0,0-11.7,5.5-16.7,8.7s-10,7-16.2,16.5h25l-3.5,16.5
	h-11c5.6,4,12.1,6.8,19.2,8c-1-2.4-1.7-5.1-2-8h10.5h2.5l3.5-16.6H44.3z M237.7,146.1c2.3,7.1,3.5,14.7,3.5,22.5
	c0,13.1-3.2,25.1-9.7,36.2c-6.4,11-15.2,19.8-26.2,26.2s-23.1,9.7-36.2,9.7c-13.1,0-25.1-3.2-36.2-9.7c-11-6.4-19.8-15.2-26.2-26.2
	c-6.4-11-9.7-23.1-9.7-36.2c0-6.6,0.8-12.9,2.5-19c-2.4,0.6-4.8,0.9-7.4,0.9c-3,0-5.9-0.5-8.6-1.3c-8.6,6-19.1,9.5-30.3,9.5
	C23.8,158.9,0,135.1,0,105.8c0-26.3,19.1-48.1,44.1-52.3c6.4-21.8,26.5-37.8,50.4-37.8c22.2,0,41.2,13.8,48.9,33.3
	c5.2-2,10.9-3.2,16.8-3.2c23.5,0,42.9,17.5,45.9,40.3c4.7-2.5,10.1-4,15.9-4c18.8,0,34,15.2,34,34
	C256,129.1,248.6,140.5,237.7,146.1z M103.9,105.8c0-28.1-22.8-50.8-50.8-50.8C25,54.9,2.3,77.7,2.3,105.8s22.7,50.8,50.8,50.8
	S103.9,133.8,103.9,105.8z M227.8,149.4c-1.3-4.1-3.1-8-5.3-11.7c-5.5-9.5-13-16.9-22.5-22.5c-9.5-5.5-19.8-8.3-31-8.3
	s-21.5,2.8-31,8.3s-16.9,13-22.5,22.5c-2,3.4-3.6,6.8-4.8,10.4c-2.3,6.5-3.5,13.3-3.5,20.6c0,11.2,2.8,21.5,8.3,31
	s13,16.9,22.5,22.5c9.5,5.5,19.8,8.3,31,8.3s21.5-2.8,31-8.3s16.9-13,22.5-22.5c5.5-9.5,8.3-19.8,8.3-31
	C230.8,161.9,229.8,155.5,227.8,149.4z M210.8,138.8c-1.2-1.2-2.5-1.7-4.1-1.7s-3,0.6-4.1,1.7L156,185.5l-19-19
	c-1.2-1.2-2.5-1.7-4.1-1.7s-3,0.6-4.1,1.7l-1.5,1.5c-1.2,1.2-1.7,2.5-1.7,4.1s0.6,3,1.7,4.1l25,25c1.2,1.2,2.5,1.7,4.1,1.7
	s3-0.6,4.1-1.7l52.2-52.2c1.2-1.2,1.7-2.5,1.7-4.1s-0.6-3-1.7-4.1L210.8,138.8z"/>
</svg>
