<?xml version="1.0" encoding="utf-8"?>
<!-- Generator: Adobe Illustrator 24.1.3, SVG Export Plug-In . SVG Version: 6.00 Build 0)  -->
<svg version="1.1" id="Ebene_1" xmlns="http://www.w3.org/2000/svg" xmlns:xlink="http://www.w3.org/1999/xlink" x="0px" y="0px"
	 viewBox="0 0 256 256" style="enable-background:new 0 0 256 256;" xml:space="preserve">
<style type="text/css">
	.st0{fill:#FFFFFF;}
</style>
<path class="st0" d="M87.8,98.7c1.4,2.5,1.6,6.2,1.6,11.2c0,9.7-1.7,19.8-5.2,30.3c-6.6,6-15,10.1-24.3,11.5
	c-0.2-1.4-0.3-2.9-0.3-4.6c0-11,2.2-22.6,6.7-34.6c4.3-11.7,9-17.5,15-17.5C84.3,94.9,86.4,96.2,87.8,98.7z M21.3,79.3l-0.3,1h-6.7
	c-4.8,7.3-7.6,16-7.6,25.4c0,5,0.8,9.7,2.2,14.2c2.6-3.3,6.1-6.1,10.8-9.2c5.3-3.5,15.3-10,15.3-10C48.9,91,50.8,86.9,50.3,78.1
	c-0.3-4-1.7-7.1-4.2-9.5S40.4,65,36.4,65c-4.1,0-7.7,1.2-10.7,3.7C24.2,69.8,22.8,73.4,21.3,79.3z M43.3,143.5h10.5h2.5l3.5-16.6
	H44.3c1.7-8,5.1-15.3,10.1-21.9C62,95.2,72,90.3,82.2,90.3c7,0,12.4,2.2,16.3,6.5c-4-21.1-22.5-37.1-44.7-37.4
	c2.2,0.4,4.3,1.2,6.1,2.5c4.5,3,7.7,7.6,8.8,14.8c0.6,3.7-0.1,6.9-1.3,9.8c-1.8,4.5-5.3,8.4-18.9,15.3c0,0-11.7,5.5-16.7,8.7
	s-10,7-16.2,16.5h25l-3.5,16.5h-11c5.6,4,12.1,6.8,19.2,8C44.3,149.1,43.6,146.4,43.3,143.5z M106.2,105.8
	c0-29.3-23.8-53.1-53.1-53.1c-3.1,0-6,0.3-9,0.8C19.1,57.7,0,79.5,0,105.8c0,29.3,23.8,53.1,53.1,53.1c11.3,0,21.7-3.5,30.3-9.5
	C97.2,139.7,106.2,123.8,106.2,105.8z M53.1,156.6c-28.1,0-50.8-22.7-50.8-50.8S25,55,53.1,55s50.8,22.7,50.8,50.8
	C103.9,133.8,81.2,156.6,53.1,156.6z M227.8,149.4c3.5-0.6,6.8-1.7,9.8-3.3c2.3,7.1,3.5,14.7,3.5,22.5c0,13.1-3.2,25.1-9.7,36.2
	c-6.4,11-15.2,19.8-26.2,26.2s-23.1,9.7-36.2,9.7c-13.1,0-25.1-3.2-36.2-9.7c-11-6.4-19.8-15.2-26.2-26.2c-6.4-11-9.7-23.1-9.7-36.2
	c0-6.6,0.8-12.9,2.5-19c3.2-0.8,6.2-2.1,8.9-3.8c0.8,0.8,1.6,1.5,2.5,2.2c-2.3,6.5-3.5,13.3-3.5,20.6c0,11.2,2.8,21.5,8.3,31
	s13,16.9,22.5,22.5c9.5,5.5,19.8,8.3,31,8.3s21.5-2.8,31-8.3s16.9-13,22.5-22.5c5.5-9.5,8.3-19.8,8.3-31
	C230.8,161.9,229.8,155.5,227.8,149.4z M256,116c0-18.8-15.2-34-34-34c-5.7,0-11.1,1.4-15.9,4c-3-22.7-22.4-40.3-45.9-40.3
	c-5.9,0-11.6,1.1-16.8,3.2c-7.7-19.5-26.7-33.3-48.9-33.3c-23.9,0-44.1,16-50.4,37.8c2.9-0.5,5.9-0.8,9-0.8
	c29.3,0,53.1,23.8,53.1,53.1c0,18-9,34-22.8,43.6c2.7,0.8,5.6,1.3,8.6,1.3c2.6,0,5-0.3,7.4-0.9c1.6-6,4-11.7,7.2-17.2
	c6.4-11,15.2-19.8,26.2-26.2c11-6.4,23.1-9.7,36.2-9.7c13.1,0,25.1,3.2,36.2,9.7c11,6.4,19.8,15.2,26.2,26.2
	c2.6,4.4,4.6,8.9,6.1,13.6C248.6,140.5,256,129.1,256,116z M231.5,132.5c2.6,4.4,4.6,8.9,6.1,13.6c-3,1.6-6.4,2.7-9.8,3.3
	c-1.3-4.1-3.1-8-5.3-11.7c-5.5-9.5-13-16.9-22.5-22.5c-9.5-5.5-19.8-8.3-31-8.3s-21.5,2.8-31,8.3s-16.9,13-22.5,22.5
	c-2,3.4-3.6,6.8-4.8,10.4c-0.9-0.7-1.7-1.4-2.5-2.2c-2.7,1.7-5.7,3-8.9,3.8c1.6-6,4-11.7,7.2-17.2c6.4-11,15.2-19.8,26.2-26.2
	c11-6.4,23.1-9.7,36.2-9.7c13.1,0,25.1,3.2,36.2,9.7C216.3,112.7,225.1,121.4,231.5,132.5z M192,197v7.7c0,1-0.3,1.9-1,2.7
	s-1.5,1.1-2.4,1.1h-36.7c-0.9,0-1.7-0.4-2.4-1.1c-0.7-0.8-1-1.7-1-2.7V197c0-1,0.3-1.9,1-2.7s1.5-1.1,2.4-1.1h11.6v-23.1h-11.6
	c-0.9,0-1.7-0.4-2.4-1.1c-0.7-0.8-1-1.7-1-2.7v-7.7c0-1,0.3-1.9,1-2.7s1.5-1.1,2.4-1.1h24.5c0.9,0,1.7,0.4,2.4,1.1
	c0.7,0.8,1,1.7,1,2.7v34.6h8.8c0.9,0,1.7,0.4,2.4,1.1C191.7,195.1,192,196,192,197z M179.8,131.3v8c0,1-0.3,1.9-1,2.7
	s-1.5,1.1-2.4,1.1h-9.5c-0.9,0-1.7-0.4-2.4-1.1s-1-1.7-1-2.7v-8c0-1,0.3-1.9,1-2.7s1.5-1.1,2.4-1.1h9.5c0.9,0,1.7,0.4,2.4,1.1
	C179.4,129.3,179.8,130.2,179.8,131.3z"/>
</svg>
