<?xml version="1.0" encoding="UTF-8" standalone="no"?>
<!-- Generator: Adobe Illustrator 24.1.3, SVG Export Plug-In . SVG Version: 6.00 Build 0)  -->

<svg
   xmlns:dc="http://purl.org/dc/elements/1.1/"
   xmlns:cc="http://creativecommons.org/ns#"
   xmlns:rdf="http://www.w3.org/1999/02/22-rdf-syntax-ns#"
   xmlns:svg="http://www.w3.org/2000/svg"
   xmlns="http://www.w3.org/2000/svg"
   xmlns:sodipodi="http://sodipodi.sourceforge.net/DTD/sodipodi-0.dtd"
   xmlns:inkscape="http://www.inkscape.org/namespaces/inkscape"
   version="1.1"
   id="Ebene_1"
   x="0px"
   y="0px"
   viewBox="0 0 256 256"
   style="enable-background:new 0 0 256 256;"
   xml:space="preserve"
   sodipodi:docname="ui-dark-plain-monochrom-state-offline.svg"
   inkscape:version="0.92.5 (2060ec1f9f, 2020-04-08)"><metadata
   id="metadata9"><rdf:RDF><cc:Work
       rdf:about=""><dc:format>image/svg+xml</dc:format><dc:type
         rdf:resource="http://purl.org/dc/dcmitype/StillImage" /></cc:Work></rdf:RDF></metadata><defs
   id="defs7" /><sodipodi:namedview
   pagecolor="#ffffff"
   bordercolor="#666666"
   borderopacity="1"
   objecttolerance="10"
   gridtolerance="10"
   guidetolerance="10"
   inkscape:pageopacity="0"
   inkscape:pageshadow="2"
   inkscape:window-width="1146"
   inkscape:window-height="785"
   id="namedview5"
   showgrid="false"
   inkscape:zoom="0.921875"
   inkscape:cx="128"
   inkscape:cy="128"
   inkscape:window-x="56"
   inkscape:window-y="27"
   inkscape:window-maximized="0"
   inkscape:current-layer="Ebene_1" />
<path
   d="M169.1,202c-3.3,0-6.1-2.8-6.1-6.1c0-3.4,2.7-6.1,6.1-6.1c3.3,0,6.1,2.8,6.1,6.1S172.4,202,169.1,202z M180.2,189.4  c-1.5,0-3-0.6-4-1.6c-2.2-2.1-5.2-3.1-8.2-2.8l-4.3,0.5l11.2-11.2l0.9,0.3c3.2,1,6.1,2.7,8.5,5.2c2.2,2.2,2.2,5.8,0,8  C183,188.9,181.7,189.4,180.2,189.4z M192.5,177.1c-1.5,0-3-0.6-4.1-1.6c-2-2-4.4-3.8-6.9-5l-1.9-0.9l8.5-8.5l1,0.7  c2.9,1.9,5.3,3.8,7.4,5.8c2.2,2.2,2.2,5.8,0,8C195.3,176.6,194,177.1,192.5,177.1z M145.6,177.1c-1.5,0-2.9-0.6-4-1.6  c-1.1-1.1-1.6-2.5-1.6-4c0-1.5,0.6-3,1.6-4l0,0c0,0,0,0,0,0c6.2-6.2,14.4-10.2,23.1-11.1l4.3-0.5l-20.6,20.6l-0.3,0.1  C147.3,176.9,146.5,177.1,145.6,177.1z M206.2,163.4c-1.5,0-3-0.6-4.1-1.6c-2-2.1-4.2-3.9-6.7-5.6l-1.5-1l8.2-8.2l1,0.7  c2.3,1.7,4.7,3.7,7.1,6.1c2.2,2.2,2.2,5.8,0,8C209,162.9,207.7,163.4,206.2,163.4z M131.9,163.4c-1.5,0-2.9-0.5-4-1.6  c-2.2-2.2-2.2-5.8,0-8l0,0c14.4-14.4,35.6-20.3,55.2-15.2l2.5,0.7l-9.5,9.5l-0.7-0.1c-2.2-0.3-4.4-0.5-6.4-0.5  c-12.6,0-24.3,4.9-33.1,13.7C134.9,162.8,133.4,163.4,131.9,163.4z M35.1,100.7C48.9,91,50.8,86.9,50.3,78.1c-0.3-4-1.7-7.1-4.2-9.5  S40.4,65,36.4,65c-4.1,0-7.7,1.2-10.7,3.7c-1.4,1.1-2.8,4.6-4.4,10.5l-0.3,1h-6.7c-4.8,7.3-7.6,16-7.6,25.4c0,5,0.8,9.7,2.2,14.2  c2.6-3.3,6.1-6.1,10.8-9.2C25.1,107.2,35.1,100.7,35.1,100.7z M53.8,59.4c2.2,0.4,4.3,1.2,6.1,2.5c4.5,3,7.7,7.6,8.8,14.8  c0.6,3.7-0.1,6.9-1.3,9.8c-1.8,4.5-5.3,8.4-18.9,15.3c0,0-11.7,5.5-16.7,8.7s-10,7-16.2,16.5h25l-3.5,16.5h-11  c5.6,4,12.1,6.8,19.2,8c-1-2.4-1.7-5.1-2-8h10.5h2.5l3.5-16.6H44.3c1.7-8,5.1-15.3,10.1-21.9C62,95.2,72,90.3,82.2,90.3  c7,0,12.4,2.2,16.3,6.5C94.5,75.7,76,59.7,53.8,59.4z M81.4,94.9c-6.1,0-10.7,5.9-15,17.5c-4.5,12-6.7,23.6-6.7,34.6  c0,1.7,0.1,3.2,0.3,4.6c9.3-1.4,17.7-5.5,24.3-11.5c3.5-10.5,5.2-20.6,5.2-30.3c0-5-0.2-8.7-1.6-11.2C86.4,96.2,84.3,94.9,81.4,94.9  z M256,116c0-18.8-15.2-34-34-34c-5.7,0-11.1,1.4-15.9,4c-3-22.7-22.4-40.3-45.9-40.3c-5.9,0-11.6,1.1-16.8,3.2  c-7.7-19.5-26.7-33.3-48.9-33.3c-23.9,0-44.1,16-50.4,37.8C19.1,57.7,0,79.5,0,105.8c0,29.3,23.8,53.1,53.1,53.1  c11.3,0,21.7-3.5,30.3-9.5c2.7,0.8,5.6,1.3,8.6,1.3c2.6,0,5-0.3,7.4-0.9c-1.6,6.1-2.5,12.4-2.5,19c0,13.1,3.2,25.1,9.7,36.2  c6.4,11,15.2,19.8,26.2,26.2s23.1,9.7,36.2,9.7c13.1,0,25.1-3.2,36.2-9.7c11-6.4,19.8-15.2,26.2-26.2s9.7-23.1,9.7-36.2  c0-7.9-1.2-15.4-3.5-22.5C248.6,140.5,256,129.1,256,116z M53.1,156.6c-28.1,0-50.8-22.7-50.8-50.8S25,55,53.1,55  s50.8,22.7,50.8,50.8C103.9,133.8,81.2,156.6,53.1,156.6z M115.7,199.6c-5.5-9.5-8.3-19.8-8.3-31c0-7.2,1.2-14.1,3.5-20.6  c1.3-3.6,2.9-7,4.8-10.4c5.5-9.5,13-16.9,22.5-22.5c9.5-5.5,19.8-8.3,31-8.3s21.5,2.8,31,8.3c2.9,1.7,5.6,3.6,8.2,5.7l-86.9,86.9  C119.3,205.2,117.4,202.5,115.7,199.6z M222.5,199.6c-5.5,9.5-13,16.9-22.5,22.5s-19.8,8.3-31,8.3s-21.5-2.8-31-8.3  c-3.2-1.9-6.2-4-9-6.4l87-87c2.3,2.8,4.5,5.8,6.4,9c2.2,3.8,4,7.7,5.3,11.7c2,6.1,3,12.5,3,19.2C230.8,179.9,228,190.2,222.5,199.6z  "
   id="path2"
   style="fill:#ffffff" />
</svg>