<?xml version="1.0" encoding="utf-8"?>
<!-- Generator: Adobe Illustrator 24.1.3, SVG Export Plug-In . SVG Version: 6.00 Build 0)  -->
<svg version="1.1" id="Ebene_1" xmlns="http://www.w3.org/2000/svg" xmlns:xlink="http://www.w3.org/1999/xlink" x="0px" y="0px"
	 viewBox="0 0 256 256" style="enable-background:new 0 0 256 256;" xml:space="preserve">
<style type="text/css">
	.st0{fill:#FFFFFF;}
</style>
<path class="st0" d="M89.4,109.9c0,9.7-1.7,19.8-5.2,30.3c-6.6,6-15,10.1-24.3,11.5c-0.2-1.4-0.3-2.9-0.3-4.6
	c0-11,2.2-22.6,6.7-34.6c4.3-11.7,9-17.5,15-17.5c2.9,0,5.1,1.2,6.5,3.7C89.3,101.2,89.4,104.9,89.4,109.9z M35.1,100.7
	C48.9,91,50.8,86.9,50.3,78.1c-0.3-4-1.7-7.1-4.2-9.5S40.4,65,36.4,65c-4.1,0-7.7,1.2-10.7,3.7c-1.4,1.1-2.8,4.6-4.4,10.5l-0.3,1
	h-6.7c-4.8,7.3-7.6,16-7.6,25.4c0,5,0.8,9.7,2.2,14.2c2.6-3.3,6.1-6.1,10.8-9.2C25.1,107.2,35.1,100.7,35.1,100.7z M44.3,126.9
	c1.7-8,5.1-15.3,10.1-21.9C62,95.2,72,90.3,82.2,90.3c7,0,12.4,2.2,16.3,6.5c-4-21.1-22.5-37.1-44.7-37.4c2.2,0.4,4.3,1.2,6.1,2.5
	c4.5,3,7.7,7.6,8.8,14.8c0.6,3.7-0.1,6.9-1.3,9.8c-1.8,4.5-5.3,8.4-18.9,15.3c0,0-11.7,5.5-16.7,8.7s-10,7-16.2,16.5h25l-3.5,16.5
	h-11c5.6,4,12.1,6.8,19.2,8c-1-2.4-1.7-5.1-2-8h10.5h2.5l3.5-16.6H44.3z M237.7,146.1c2.3,7.1,3.5,14.7,3.5,22.5
	c0,13.1-3.2,25.1-9.7,36.2c-6.4,11-15.2,19.8-26.2,26.2s-23.1,9.7-36.2,9.7c-13.1,0-25.1-3.2-36.2-9.7c-11-6.4-19.8-15.2-26.2-26.2
	c-6.4-11-9.7-23.1-9.7-36.2c0-6.6,0.8-12.9,2.5-19c-2.4,0.6-4.8,0.9-7.4,0.9c-3,0-5.9-0.5-8.6-1.3c-8.6,6-19.1,9.5-30.3,9.5
	C23.8,158.9,0,135.1,0,105.8c0-26.3,19.1-48.1,44.1-52.3c6.4-21.8,26.5-37.8,50.4-37.8c22.2,0,41.2,13.8,48.9,33.3
	c5.2-2,10.9-3.2,16.8-3.2c23.5,0,42.9,17.5,45.9,40.3c4.7-2.5,10.1-4,15.9-4c18.8,0,34,15.2,34,34
	C256,129.1,248.6,140.5,237.7,146.1z M103.9,105.8c0-28.1-22.8-50.8-50.8-50.8C25,54.9,2.3,77.7,2.3,105.8s22.7,50.8,50.8,50.8
	S103.9,133.8,103.9,105.8z M227.8,149.4c-1.3-4.1-3.1-8-5.3-11.7c-5.5-9.5-13-16.9-22.5-22.5c-9.5-5.5-19.8-8.3-31-8.3
	s-21.5,2.8-31,8.3s-16.9,13-22.5,22.5c-2,3.4-3.6,6.8-4.8,10.4c-2.3,6.5-3.5,13.3-3.5,20.6c0,11.2,2.8,21.5,8.3,31
	s13,16.9,22.5,22.5c9.5,5.5,19.8,8.3,31,8.3s21.5-2.8,31-8.3s16.9-13,22.5-22.5c5.5-9.5,8.3-19.8,8.3-31
	C230.8,161.9,229.8,155.5,227.8,149.4z M203.4,144.1c0-1-0.4-1.9-1.1-2.6l-5.5-5.5c-0.7-0.7-1.6-1.1-2.6-1.1s-1.9,0.4-2.7,1.1
	l-22.3,22.3L146.9,136c-0.8-0.7-1.7-1.1-2.7-1.1s-1.9,0.4-2.6,1.1l-5.5,5.5c-0.7,0.7-1.1,1.6-1.1,2.6s0.4,1.9,1.1,2.7l22.4,22.3
	l-22.4,22.3c-0.7,0.8-1.1,1.7-1.1,2.7s0.4,1.9,1.1,2.6l5.5,5.5c0.7,0.7,1.6,1.1,2.6,1.1s1.9-0.4,2.7-1.1l22.3-22.4l22.3,22.4
	c0.8,0.7,1.7,1.1,2.7,1.1s1.9-0.4,2.6-1.1l5.5-5.5c0.7-0.7,1.1-1.6,1.1-2.6s-0.4-1.9-1.1-2.7L180,169.2l22.3-22.3
	C203,146.1,203.4,145.2,203.4,144.1z"/>
</svg>
