<?xml version="1.0" encoding="utf-8"?>
<!-- Generator: Adobe Illustrator 24.1.3, SVG Export Plug-In . SVG Version: 6.00 Build 0)  -->
<svg version="1.1" id="Ebene_1" xmlns="http://www.w3.org/2000/svg" xmlns:xlink="http://www.w3.org/1999/xlink" x="0px" y="0px"
	 viewBox="0 0 256 256" style="enable-background:new 0 0 256 256;" xml:space="preserve">
<style type="text/css">
	.st0{fill:#FFFFFF;}
</style>
<path class="st0" d="M41.9,72.5c0,3.4-2.8,6.1-6.1,6.1c-3.4,0-6.1-2.8-6.1-6.1c0-3.4,2.8-6.1,6.1-6.1C39.1,66.4,41.9,69.1,41.9,72.5
	z M35.8,110.6c-3.4,0-6.1,2.8-6.1,6.1c0,3.4,2.8,6.1,6.1,6.1c3.4,0,6.1-2.8,6.1-6.1C41.9,113.3,39.1,110.6,35.8,110.6z M35.8,95.8
	c-3.4,0-6.1,2.8-6.1,6.1c0,3.4,2.8,6.1,6.1,6.1c3.4,0,6.1-2.8,6.1-6.1C41.9,98.6,39.1,95.8,35.8,95.8z M35.8,81.1
	c-3.4,0-6.1,2.8-6.1,6.1c0,3.4,2.8,6.1,6.1,6.1c3.4,0,6.1-2.8,6.1-6.1C41.9,83.8,39.1,81.1,35.8,81.1z M35.8,125.3
	c-3.4,0-6.1,2.8-6.1,6.1c0,3.4,2.8,6.1,6.1,6.1c3.4,0,6.1-2.8,6.1-6.1C41.9,128.1,39.1,125.3,35.8,125.3z M35.8,140
	c-3.4,0-6.1,2.8-6.1,6.1s2.8,6.1,6.1,6.1c3.4,0,6.1-2.8,6.1-6.1S39.1,140,35.8,140z M6.1,81.1c-3.4,0-6.1,2.8-6.1,6.1
	c0,3.4,2.8,6.1,6.1,6.1s6.1-2.8,6.1-6.1C12.3,83.8,9.5,81.1,6.1,81.1z M6.1,95.8C2.8,95.8,0,98.6,0,102c0,3.4,2.8,6.1,6.1,6.1
	s6.1-2.8,6.1-6.1C12.3,98.6,9.5,95.8,6.1,95.8z M20.9,81.1c-3.4,0-6.1,2.8-6.1,6.1c0,3.4,2.8,6.1,6.1,6.1s6.1-2.8,6.1-6.1
	C27.1,83.8,24.3,81.1,20.9,81.1z M20.9,95.8c-3.4,0-6.1,2.8-6.1,6.1c0,3.4,2.8,6.1,6.1,6.1s6.1-2.8,6.1-6.1
	C27.1,98.6,24.3,95.8,20.9,95.8z M50.6,140c-3.4,0-6.1,2.8-6.1,6.1s2.8,6.1,6.1,6.1c3.4,0,6.1-2.8,6.1-6.1S54,140,50.6,140z
	 M65.5,95.8c-3.4,0-6.1,2.8-6.1,6.1c0,3.4,2.8,6.1,6.1,6.1c3.4,0,6.1-2.8,6.1-6.1C71.7,98.6,68.9,95.8,65.5,95.8z M65.5,81.1
	c-3.4,0-6.1,2.8-6.1,6.1c0,3.4,2.8,6.1,6.1,6.1c3.4,0,6.1-2.8,6.1-6.1C71.7,83.8,68.9,81.1,65.5,81.1z M50.6,51.7
	c-3.4,0-6.1,2.8-6.1,6.1c0,3.4,2.8,6.1,6.1,6.1c3.4,0,6.1-2.8,6.1-6.1C56.8,54.5,54,51.7,50.6,51.7z M86.5,87.2
	c0-3.4-2.8-6.1-6.1-6.1c-3.4,0-6.1,2.8-6.1,6.1c0,3.4,2.8,6.1,6.1,6.1C83.8,93.3,86.5,90.6,86.5,87.2z M50.6,66.4
	c-3.4,0-6.1,2.8-6.1,6.1c0,3.4,2.8,6.1,6.1,6.1c3.4,0,6.1-2.8,6.1-6.1C56.8,69.1,54,66.4,50.6,66.4z M50.6,95.8
	c-3.4,0-6.1,2.8-6.1,6.1c0,3.4,2.8,6.1,6.1,6.1c3.4,0,6.1-2.8,6.1-6.1C56.8,98.6,54,95.8,50.6,95.8z M50.6,110.6
	c-3.4,0-6.1,2.8-6.1,6.1c0,3.4,2.8,6.1,6.1,6.1c3.4,0,6.1-2.8,6.1-6.1C56.8,113.3,54,110.6,50.6,110.6z M50.6,125.3
	c-3.4,0-6.1,2.8-6.1,6.1c0,3.4,2.8,6.1,6.1,6.1c3.4,0,6.1-2.8,6.1-6.1C56.8,128.1,54,125.3,50.6,125.3z M50.6,81.1
	c-3.4,0-6.1,2.8-6.1,6.1c0,3.4,2.8,6.1,6.1,6.1c3.4,0,6.1-2.8,6.1-6.1C56.8,83.8,54,81.1,50.6,81.1z M245.8,144.3
	c4.8,9,7.2,18.8,7.2,29.3c0,11.4-2.8,22-8.4,31.6c-5.6,9.6-13.3,17.3-22.9,22.9c-9.6,5.6-20.2,8.4-31.6,8.4s-22-2.8-31.6-8.4
	c-9.6-5.6-17.3-13.3-22.9-22.9c-5.6-9.6-8.4-20.2-8.4-31.6c0-7.5,1.2-14.7,3.7-21.4h-26.5H85.6c-3.3-6.3-5.2-13.4-5.2-21
	c0-19.7,12.8-36.4,30.5-42.3c-8.8-7-14.4-17.8-14.4-29.9c0-21.2,17.2-38.3,38.3-38.3c17.9,0,33,12.3,37.1,28.9
	c5.8-2.9,12.3-4.5,19.2-4.5c23.8,0,43,19.3,43,43c0,1.3-0.1,2.5-0.2,3.7c12.7,3.8,22,15.6,22,29.5
	C256,130.5,252.1,138.6,245.8,144.3z M244,173.6c0-1,0-2-0.1-3c0-0.1,0-0.2,0-0.4c-0.1-0.9-0.1-1.9-0.2-2.8c0-0.1,0-0.3,0-0.4
	c-0.1-0.9-0.2-1.9-0.4-2.8c0-0.1,0-0.2-0.1-0.3c-0.2-1-0.4-1.9-0.6-2.9c0,0,0,0,0,0c-0.5-2-1.1-3.9-1.8-5.9c0,0,0-0.1,0-0.1
	c-0.3-0.9-0.7-1.9-1.1-2.8c0,0,0-0.1-0.1-0.1c-0.8-1.9-1.8-3.7-2.8-5.5c-4.8-8.3-11.4-14.8-19.6-19.6c-8.3-4.8-17.3-7.2-27-7.2
	c-9.8,0-18.8,2.4-27,7.2c-8.3,4.8-14.8,11.4-19.6,19.6c-2,3.4-3.6,7-4.8,10.7c0,0,0,0,0,0c-0.3,0.9-0.5,1.7-0.7,2.6c0,0,0,0,0,0
	c-0.2,0.8-0.4,1.7-0.6,2.6c0,0,0,0.1,0,0.1c-0.2,0.8-0.3,1.7-0.4,2.5c0,0.1,0,0.2,0,0.3c-0.1,0.8-0.2,1.6-0.3,2.4c0,0.1,0,0.1,0,0.2
	c-0.1,0.8-0.1,1.7-0.2,2.5c0,0.2,0,0.4,0,0.5c0,0.8-0.1,1.7-0.1,2.5c0,9.8,2.4,18.8,7.2,27c4.8,8.3,11.4,14.8,19.6,19.6
	c8.3,4.8,17.3,7.2,27,7.2c9.8,0,18.8-2.4,27-7.2c8.3-4.8,14.8-11.4,19.6-19.6C241.5,192.4,244,183.4,244,173.6z M209.2,196
	c-0.6-0.7-1.3-1-2.1-1h-7.7v-30.2c0-0.9-0.3-1.7-0.9-2.4c-0.6-0.7-1.3-1-2.1-1H175c-0.8,0-1.5,0.3-2.1,1s-0.9,1.5-0.9,2.4v6.7
	c0,0.9,0.3,1.7,0.9,2.4c0.6,0.7,1.3,1,2.1,1h10.1V195H175c-0.8,0-1.5,0.3-2.1,1c-0.6,0.7-0.9,1.5-0.9,2.4v6.7c0,0.9,0.3,1.7,0.9,2.4
	c0.6,0.7,1.3,1,2.1,1h32c0.8,0,1.5-0.3,2.1-1c0.6-0.7,0.9-1.5,0.9-2.4v-6.7C210.1,197.5,209.8,196.7,209.2,196z M198.5,138.6
	c-0.6-0.7-1.3-1-2.1-1h-8.3c-0.8,0-1.5,0.3-2.1,1c-0.6,0.7-0.9,1.5-0.9,2.4v7c0,0.9,0.3,1.7,0.9,2.4c0.6,0.7,1.3,1,2.1,1h8.3
	c0.8,0,1.5-0.3,2.1-1c0.6-0.7,0.9-1.5,0.9-2.4v-7C199.4,140.1,199.1,139.3,198.5,138.6z"/>
</svg>
