<?xml version="1.0" encoding="utf-8"?>
<!-- Generator: Adobe Illustrator 24.1.2, SVG Export Plug-In . SVG Version: 6.00 Build 0)  -->
<svg version="1.1"
	 id="Layer_1" xmlns:cc="http://creativecommons.org/ns#" xmlns:dc="http://purl.org/dc/elements/1.1/" xmlns:inkscape="http://www.inkscape.org/namespaces/inkscape" xmlns:rdf="http://www.w3.org/1999/02/22-rdf-syntax-ns#" xmlns:sodipodi="http://sodipodi.sourceforge.net/DTD/sodipodi-0.dtd" xmlns:svg="http://www.w3.org/2000/svg"
	 xmlns="http://www.w3.org/2000/svg" xmlns:xlink="http://www.w3.org/1999/xlink" x="0px" y="0px" viewBox="0 0 32 32"
	 style="enable-background:new 0 0 32 32;" xml:space="preserve">
<style type="text/css">
	.st0{fill:#B39876;}
</style>
<g>
	<path class="st0" d="M28.9,15.2c0-0.2,0-0.3,0-0.5c0-2.9-2.3-5.2-5.2-5.2c-0.8,0-1.6,0.2-2.3,0.6c-0.5-2-2.3-3.6-4.5-3.6
		c-2.6,0-4.7,2.1-4.7,4.7c0,1.5,0.7,2.8,1.8,3.6c-2.2,0.7-3.7,2.8-3.7,5.2c0,0.9,0.2,1.8,0.6,2.6h2.3h7.3h7.4l0,0h0
		c2.1,0,3.8-1.7,3.8-3.8C31.6,17.1,30.4,15.7,28.9,15.2z"/>
</g>
<g id="Kreuz_NEU_RZ_8_">
	<path class="st0" d="M4,21.8c0-0.4,0.3-0.7,0.7-0.7s0.7,0.3,0.7,0.7c0,0.4-0.3,0.7-0.7,0.7S4,22.2,4,21.8z M6.6,22.5
		c0.4,0,0.7-0.3,0.7-0.7c0-0.4-0.3-0.7-0.7-0.7s-0.7,0.3-0.7,0.7C5.8,22.2,6.2,22.5,6.6,22.5z M4.8,20.8c0.4,0,0.7-0.3,0.7-0.7
		c0-0.4-0.3-0.7-0.7-0.7S4,19.6,4,20C4,20.4,4.4,20.8,4.8,20.8z M6.6,20.8c0.4,0,0.7-0.3,0.7-0.7c0-0.4-0.3-0.7-0.7-0.7
		S5.8,19.6,5.8,20C5.8,20.4,6.2,20.8,6.6,20.8z M4.8,19c0.4,0,0.7-0.3,0.7-0.7c0-0.4-0.3-0.7-0.7-0.7S4,17.8,4,18.2
		C4,18.6,4.4,19,4.8,19z M6.6,19c0.4,0,0.7-0.3,0.7-0.7c0-0.4-0.3-0.7-0.7-0.7s-0.7,0.3-0.7,0.7C5.8,18.6,6.2,19,6.6,19z M4.8,17.2
		c0.4,0,0.7-0.3,0.7-0.7s-0.3-0.7-0.7-0.7S4,16,4,16.4S4.4,17.2,4.8,17.2z M6.6,17.2c0.4,0,0.7-0.3,0.7-0.7S7,15.7,6.6,15.7
		S5.8,16,5.8,16.4S6.2,17.2,6.6,17.2z M4.8,15.4c0.4,0,0.7-0.3,0.7-0.7c0-0.4-0.3-0.7-0.7-0.7S4,14.2,4,14.6C4,15,4.4,15.4,4.8,15.4
		z M6.6,15.4c0.4,0,0.7-0.3,0.7-0.7c0-0.4-0.3-0.7-0.7-0.7s-0.7,0.3-0.7,0.7C5.8,15,6.2,15.4,6.6,15.4z M3,17.2
		c0.4,0,0.7-0.3,0.7-0.7S3.4,15.7,3,15.7S2.2,16,2.2,16.4S2.5,17.2,3,17.2z M3,15.4c0.4,0,0.7-0.3,0.7-0.7c0-0.4-0.3-0.7-0.7-0.7
		s-0.7,0.3-0.7,0.7C2.2,15,2.5,15.4,3,15.4z M8.4,17.2c0.4,0,0.7-0.3,0.7-0.7s-0.3-0.7-0.7-0.7c-0.4,0-0.7,0.3-0.7,0.7
		S8,17.2,8.4,17.2z M8.4,15.4c0.4,0,0.7-0.3,0.7-0.7c0-0.4-0.3-0.7-0.7-0.7c-0.4,0-0.7,0.3-0.7,0.7C7.6,15,8,15.4,8.4,15.4z
		 M10.2,15.4c0.4,0,0.7-0.3,0.7-0.7c0-0.4-0.3-0.7-0.7-0.7s-0.7,0.3-0.7,0.7C9.5,15,9.8,15.4,10.2,15.4z M1.2,17.2
		c0.4,0,0.7-0.3,0.7-0.7s-0.3-0.7-0.7-0.7S0.4,16,0.4,16.4S0.7,17.2,1.2,17.2z M1.2,15.4c0.4,0,0.7-0.3,0.7-0.7
		c0-0.4-0.3-0.7-0.7-0.7s-0.7,0.3-0.7,0.7C0.4,15,0.7,15.4,1.2,15.4z M4.8,13.6c0.4,0,0.7-0.3,0.7-0.7c0-0.4-0.3-0.7-0.7-0.7
		S4,12.4,4,12.8C4,13.2,4.4,13.6,4.8,13.6z M6.6,13.6c0.4,0,0.7-0.3,0.7-0.7c0-0.4-0.3-0.7-0.7-0.7s-0.7,0.3-0.7,0.7
		C5.8,13.2,6.2,13.6,6.6,13.6z M6.6,11.8c0.4,0,0.7-0.3,0.7-0.7c0-0.4-0.3-0.7-0.7-0.7S5.8,10.6,5.8,11C5.8,11.5,6.2,11.8,6.6,11.8z
		"/>
</g>
</svg>
