<?xml version="1.0" encoding="utf-8"?>
<!-- Generator: Adobe Illustrator 24.1.3, SVG Export Plug-In . SVG Version: 6.00 Build 0)  -->
<svg version="1.1" id="Ebene_1" xmlns="http://www.w3.org/2000/svg" xmlns:xlink="http://www.w3.org/1999/xlink" x="0px" y="0px"
	 viewBox="0 0 256 256" style="enable-background:new 0 0 256 256;" xml:space="preserve">
<path d="M41.9,73.5c0,3.4-2.8,6.1-6.1,6.1c-3.4,0-6.1-2.8-6.1-6.1c0-3.4,2.8-6.1,6.1-6.1C39.1,67.4,41.9,70.1,41.9,73.5z
	 M35.8,111.6c-3.4,0-6.1,2.8-6.1,6.1c0,3.4,2.8,6.1,6.1,6.1c3.4,0,6.1-2.8,6.1-6.1C41.9,114.3,39.1,111.6,35.8,111.6z M35.8,96.8
	c-3.4,0-6.1,2.8-6.1,6.1c0,3.4,2.8,6.1,6.1,6.1c3.4,0,6.1-2.8,6.1-6.1C41.9,99.6,39.1,96.8,35.8,96.8z M35.8,82.1
	c-3.4,0-6.1,2.8-6.1,6.1c0,3.4,2.8,6.1,6.1,6.1c3.4,0,6.1-2.8,6.1-6.1C41.9,84.8,39.1,82.1,35.8,82.1z M35.8,126.3
	c-3.4,0-6.1,2.8-6.1,6.1c0,3.4,2.8,6.1,6.1,6.1c3.4,0,6.1-2.8,6.1-6.1C41.9,129.1,39.1,126.3,35.8,126.3z M35.8,141
	c-3.4,0-6.1,2.8-6.1,6.1c0,3.4,2.8,6.1,6.1,6.1c3.4,0,6.1-2.8,6.1-6.1C41.9,143.8,39.1,141,35.8,141z M6.1,82.1
	c-3.4,0-6.1,2.8-6.1,6.1c0,3.4,2.8,6.1,6.1,6.1c3.4,0,6.1-2.8,6.1-6.1C12.3,84.8,9.5,82.1,6.1,82.1z M6.1,96.8
	C2.8,96.8,0,99.6,0,103c0,3.4,2.8,6.1,6.1,6.1c3.4,0,6.1-2.8,6.1-6.1C12.3,99.6,9.5,96.8,6.1,96.8z M20.9,82.1
	c-3.4,0-6.1,2.8-6.1,6.1c0,3.4,2.8,6.1,6.1,6.1s6.1-2.8,6.1-6.1C27.1,84.8,24.3,82.1,20.9,82.1z M20.9,96.8c-3.4,0-6.1,2.8-6.1,6.1
	c0,3.4,2.8,6.1,6.1,6.1c3.4,0,6.1-2.8,6.1-6.1C27.1,99.6,24.3,96.8,20.9,96.8z M50.6,141c-3.4,0-6.1,2.8-6.1,6.1s2.8,6.1,6.1,6.1
	c3.4,0,6.1-2.8,6.1-6.1S54,141,50.6,141z M65.5,96.8c-3.4,0-6.1,2.8-6.1,6.1c0,3.4,2.8,6.1,6.1,6.1c3.4,0,6.1-2.8,6.1-6.1
	C71.7,99.6,68.9,96.8,65.5,96.8z M65.5,82.1c-3.4,0-6.1,2.8-6.1,6.1c0,3.4,2.8,6.1,6.1,6.1c3.4,0,6.1-2.8,6.1-6.1
	C71.7,84.8,68.9,82.1,65.5,82.1z M50.6,52.7c-3.4,0-6.1,2.8-6.1,6.1c0,3.4,2.8,6.1,6.1,6.1c3.4,0,6.1-2.8,6.1-6.1
	C56.8,55.5,54,52.7,50.6,52.7z M86.5,88.2c0-3.4-2.8-6.1-6.1-6.1c-3.4,0-6.1,2.8-6.1,6.1c0,3.4,2.8,6.1,6.1,6.1
	C83.8,94.3,86.5,91.6,86.5,88.2z M50.6,67.4c-3.4,0-6.1,2.8-6.1,6.1c0,3.4,2.8,6.1,6.1,6.1c3.4,0,6.1-2.8,6.1-6.1
	C56.8,70.1,54,67.4,50.6,67.4z M50.6,96.8c-3.4,0-6.1,2.8-6.1,6.1c0,3.4,2.8,6.1,6.1,6.1c3.4,0,6.1-2.8,6.1-6.1
	C56.8,99.6,54,96.8,50.6,96.8z M50.6,111.6c-3.4,0-6.1,2.8-6.1,6.1c0,3.4,2.8,6.1,6.1,6.1c3.4,0,6.1-2.8,6.1-6.1
	C56.8,114.3,54,111.6,50.6,111.6z M50.6,126.3c-3.4,0-6.1,2.8-6.1,6.1c0,3.4,2.8,6.1,6.1,6.1c3.4,0,6.1-2.8,6.1-6.1
	C56.8,129.1,54,126.3,50.6,126.3z M50.6,82.1c-3.4,0-6.1,2.8-6.1,6.1c0,3.4,2.8,6.1,6.1,6.1c3.4,0,6.1-2.8,6.1-6.1
	C56.8,84.8,54,82.1,50.6,82.1z M245.8,145.3c4.8,9,7.2,18.8,7.2,29.3c0,11.4-2.8,22-8.4,31.6c-5.6,9.6-13.3,17.3-22.9,22.9
	c-9.6,5.6-20.2,8.4-31.6,8.4c-11.4,0-22-2.8-31.6-8.4c-9.6-5.6-17.3-13.3-22.9-22.9c-5.6-9.6-8.4-20.2-8.4-31.6
	c0-7.5,1.2-14.7,3.7-21.4l-26.5,0l-18.6,0c-3.3-6.3-5.2-13.4-5.2-21c0-19.7,12.8-36.4,30.5-42.3c-8.8-7-14.4-17.8-14.4-29.9
	c0-21.2,17.2-38.3,38.3-38.3c17.9,0,33,12.3,37.1,28.9c5.8-2.9,12.3-4.5,19.2-4.5c23.8,0,43,19.3,43,43c0,1.3-0.1,2.5-0.2,3.7
	c12.7,3.8,22,15.6,22,29.5C256,131.5,252.1,139.6,245.8,145.3z M244,174.6c0-1,0-2-0.1-3c0-0.1,0-0.2,0-0.4
	c-0.1-0.9-0.1-1.9-0.2-2.8c0-0.1,0-0.3,0-0.4c-0.1-0.9-0.2-1.9-0.4-2.8c0-0.1,0-0.2-0.1-0.3c-0.2-1-0.4-1.9-0.6-2.9c0,0,0,0,0,0
	c-0.5-2-1.1-3.9-1.8-5.9c0,0,0-0.1,0-0.1c-0.3-0.9-0.7-1.9-1.1-2.8c0,0,0-0.1-0.1-0.1c-0.8-1.9-1.8-3.7-2.8-5.5
	c-4.8-8.3-11.4-14.8-19.6-19.6c-8.3-4.8-17.3-7.2-27-7.2c-9.8,0-18.8,2.4-27,7.2c-8.3,4.8-14.8,11.4-19.6,19.6
	c-2,3.4-3.6,7-4.8,10.7c0,0,0,0,0,0c-0.3,0.9-0.5,1.7-0.7,2.6c0,0,0,0,0,0c-0.2,0.8-0.4,1.7-0.6,2.6c0,0,0,0.1,0,0.1
	c-0.2,0.8-0.3,1.7-0.4,2.5c0,0.1,0,0.2,0,0.3c-0.1,0.8-0.2,1.6-0.3,2.4c0,0.1,0,0.1,0,0.2c-0.1,0.8-0.1,1.7-0.2,2.5
	c0,0.2,0,0.4,0,0.5c0,0.8-0.1,1.7-0.1,2.5c0,9.8,2.4,18.8,7.2,27c4.8,8.3,11.4,14.8,19.6,19.6c8.3,4.8,17.3,7.2,27,7.2
	c9.8,0,18.8-2.4,27-7.2c8.3-4.8,14.8-11.4,19.6-19.6C241.5,193.4,244,184.4,244,174.6z M192.7,201.9l19.2-19.2
	c0.7-0.7,1.1-1.6,1.1-2.7c0-1-0.4-1.9-1.1-2.7l-2.2-2.2c-0.7-0.7-1.6-1.1-2.7-1.1c-1.1,0-1.9,0.4-2.7,1.1l-8.7,8.6l0-38.1
	c0-1-0.4-1.9-1.1-2.5s-1.6-1-2.7-1h-3.8c-1,0-1.9,0.3-2.7,1s-1.1,1.5-1.1,2.5l0,38.1l-8.6-8.6c-0.7-0.7-1.6-1.1-2.7-1.1
	s-1.9,0.4-2.7,1.1l-2.2,2.2c-0.7,0.8-1.1,1.7-1.1,2.7c0,1,0.4,1.9,1.1,2.7l19.2,19.2c0.7,0.7,1.6,1.1,2.7,1.1
	C191.1,203,192,202.6,192.7,201.9z"/>
</svg>
