<?xml version="1.0" encoding="utf-8"?>
<!-- Generator: Adobe Illustrator 24.1.3, SVG Export Plug-In . SVG Version: 6.00 Build 0)  -->
<svg version="1.1" id="Ebene_1" xmlns="http://www.w3.org/2000/svg" xmlns:xlink="http://www.w3.org/1999/xlink" x="0px" y="0px"
	 viewBox="0 0 256 256" style="enable-background:new 0 0 256 256;" xml:space="preserve">
<style type="text/css">
	.st0{display:none;}
</style>
<path d="M184,161.6c0.3,7.3,0.9,14.5,1.3,21.5c0,2.5,1.9,4.1,4.4,4.1c2.5,0,4.4-1.9,4.4-4.4c0-1.6,0-2.8,0-4.4
	c0.3-4.7,0.6-9.2,0.9-13.9c0-2.3,0.2-4.5,0.4-6.7c0.1-0.8,0.2-1.6,0.2-2.4c0-0.9,0-1.9-0.6-3.2c-0.9-2.2-3.8-3.5-6.6-2.8
	c-2.8,0.9-4.7,3.5-4.7,6.6c0,0.6,0,1.2,0.1,1.8C183.9,159,184,160.3,184,161.6z"/>
<path d="M189.7,191.6c-3.2,0-6,2.8-6,6c0,3.2,2.8,6,6,6c3.2,0,6-2.8,6-6C196,194.1,193.2,191.6,189.7,191.6z"/>
<circle cx="35.8" cy="151.7" r="6.1"/>
<circle class="st0" cx="50.6" cy="151.7" r="6.1"/>
<circle cx="35.8" cy="137" r="6.1"/>
<circle cx="50.6" cy="137" r="6.1"/>
<circle cx="35.8" cy="122.2" r="6.1"/>
<circle cx="50.6" cy="122.2" r="6.1"/>
<circle cx="35.8" cy="107.5" r="6.1"/>
<circle cx="50.6" cy="107.5" r="6.1"/>
<circle cx="35.8" cy="92.7" r="6.1"/>
<circle cx="50.6" cy="92.7" r="6.1"/>
<circle cx="20.9" cy="107.5" r="6.1"/>
<circle cx="20.9" cy="92.7" r="6.1"/>
<circle cx="65.5" cy="107.5" r="6.1"/>
<circle cx="65.5" cy="92.7" r="6.1"/>
<circle cx="80.4" cy="92.7" r="6.1"/>
<circle cx="6.1" cy="107.5" r="6.1"/>
<circle cx="6.1" cy="92.7" r="6.1"/>
<circle cx="35.8" cy="78.1" r="6.1"/>
<circle cx="50.6" cy="78.1" r="6.1"/>
<circle cx="50.6" cy="63.4" r="6.1"/>
<path d="M225.8,157.7c16.7-0.3,30.2-14,30.2-30.8c0-13.9-9.3-25.7-22-29.5c0.1-1.2,0.2-2.5,0.2-3.7c0-23.8-19.3-43-43-43
	c-6.9,0-13.4,1.6-19.2,4.5c-4.2-16.6-19.2-28.9-37.1-28.9c-21.2,0-38.3,17.1-38.3,38.3c0,12.1,5.6,22.9,14.4,29.9
	c-17.7,5.9-30.5,22.6-30.5,42.3c0,7.6,1.9,14.7,5.2,21h18.6H154l-19.8,34.2c-3.8,6.6-3.8,14.5,0,20.8c3.8,6.3,10.4,10.4,18,10.4
	h75.4c7.6,0.3,14.2-3.8,18-10.4c3.8-6.6,3.8-14.2,0-20.8L225.8,157.7z M237.4,208c-2.2,3.5-5.7,5.7-10.1,5.7h-75.1
	c-4.1,0-7.9-2.2-9.8-5.7c-2.2-3.5-2.2-7.9,0-11.4l22.4-38.9l15.2-26.4c2.2-3.5,5.7-5.7,10.1-5.7c4.1,0,7.9,2.2,9.8,5.7l15.3,26.4
	l22.5,38.9C239.6,200.4,239.6,204.5,237.4,208z"/>
</svg>
