<?xml version="1.0" encoding="utf-8"?>
<!-- Generator: Adobe Illustrator 24.1.3, SVG Export Plug-In . SVG Version: 6.00 Build 0)  -->
<svg version="1.1" id="Ebene_1" xmlns="http://www.w3.org/2000/svg" xmlns:xlink="http://www.w3.org/1999/xlink" x="0px" y="0px"
	 viewBox="0 0 256 256" style="enable-background:new 0 0 256 256;" xml:space="preserve">
<style type="text/css">
	.st0{fill:#FFFFFF;}
</style>
<circle class="st0" cx="35.8" cy="72.9" r="6.1"/>
<circle class="st0" cx="35.8" cy="117.1" r="6.1"/>
<circle class="st0" cx="35.8" cy="102.3" r="6.1"/>
<circle class="st0" cx="35.8" cy="87.6" r="6.1"/>
<circle class="st0" cx="35.8" cy="131.8" r="6.1"/>
<circle class="st0" cx="35.8" cy="146.5" r="6.1"/>
<circle class="st0" cx="6.1" cy="87.6" r="6.1"/>
<circle class="st0" cx="6.1" cy="102.3" r="6.1"/>
<circle class="st0" cx="20.9" cy="87.6" r="6.1"/>
<circle class="st0" cx="20.9" cy="102.3" r="6.1"/>
<ellipse transform="matrix(0.9871 -0.1602 0.1602 0.9871 -22.8208 10.0026)" class="st0" cx="50.6" cy="146.5" rx="6.1" ry="6.1"/>
<circle class="st0" cx="65.5" cy="102.3" r="6.1"/>
<circle class="st0" cx="65.5" cy="87.6" r="6.1"/>
<ellipse transform="matrix(0.9732 -0.2298 0.2298 0.9732 -12.0267 13.1908)" class="st0" cx="50.6" cy="58.2" rx="6.1" ry="6.1"/>
<ellipse transform="matrix(0.7071 -0.7071 0.7071 0.7071 -38.3731 82.4932)" class="st0" cx="80.4" cy="87.6" rx="6.1" ry="6.1"/>
<ellipse transform="matrix(0.9871 -0.1602 0.1602 0.9871 -11.0203 9.0514)" class="st0" cx="50.6" cy="72.9" rx="6.1" ry="6.1"/>
<ellipse transform="matrix(0.7071 -0.7071 0.7071 0.7071 -57.5192 65.7698)" class="st0" cx="50.6" cy="102.3" rx="6.1" ry="6.1"/>
<ellipse transform="matrix(0.9871 -0.1602 0.1602 0.9871 -18.0982 9.6219)" class="st0" cx="50.6" cy="117.1" rx="6.1" ry="6.1"/>
<ellipse transform="matrix(0.9871 -0.1602 0.1602 0.9871 -20.4609 9.8124)" class="st0" cx="50.6" cy="131.8" rx="6.1" ry="6.1"/>
<ellipse transform="matrix(0.9732 -0.2298 0.2298 0.9732 -18.7644 13.9753)" class="st0" cx="50.6" cy="87.6" rx="6.1" ry="6.1"/>
<path class="st0" d="M256,121.8c0-13.9-9.3-25.7-22-29.5c0.1-1.2,0.2-2.5,0.2-3.7c0-23.8-19.3-43-43-43c-6.9,0-13.4,1.6-19.2,4.5
	c-4.2-16.6-19.2-28.9-37.1-28.9c-21.2,0-38.3,17.1-38.3,38.3c0,12.1,5.6,22.9,14.4,29.9c-17.7,5.9-30.5,22.6-30.5,42.3
	c0,7.6,1.9,14.7,5.2,21h18.6h26.5c-2.4,6.8-3.7,13.9-3.7,21.4c0,11.4,2.8,22,8.4,31.6c5.6,9.6,13.3,17.3,22.9,22.9
	c9.6,5.6,20.2,8.4,31.6,8.4s22-2.8,31.6-8.4c9.6-5.6,17.3-13.3,22.9-22.9c5.6-9.6,8.4-20.2,8.4-31.6c0-10.5-2.4-20.3-7.2-29.3
	C252.1,139,256,130.9,256,121.8z M236.7,201c-4.8,8.3-11.4,14.8-19.6,19.6c-8.3,4.8-17.3,7.2-27,7.2c-9.8,0-18.8-2.4-27-7.2
	c-8.3-4.8-14.8-11.4-19.6-19.6c-4.8-8.3-7.2-17.3-7.2-27c0-0.9,0-1.7,0.1-2.5c0-0.2,0-0.4,0-0.5c0-0.8,0.1-1.7,0.2-2.5
	c0-0.1,0-0.1,0-0.2c0.1-0.8,0.2-1.6,0.3-2.4c0-0.1,0-0.2,0-0.3c0.1-0.8,0.3-1.7,0.4-2.5c0,0,0-0.1,0-0.1c0.2-0.9,0.4-1.7,0.6-2.6
	c0,0,0,0,0,0c0.2-0.9,0.5-1.7,0.7-2.6c0,0,0,0,0,0c1.2-3.7,2.8-7.3,4.8-10.7c4.8-8.3,11.4-14.8,19.6-19.6c8.3-4.8,17.3-7.2,27-7.2
	c9.8,0,18.8,2.4,27,7.2c8.3,4.8,14.8,11.4,19.6,19.6c1.1,1.8,2,3.6,2.8,5.5c0,0,0,0.1,0.1,0.1c0.4,0.9,0.8,1.9,1.1,2.8
	c0,0,0,0.1,0,0.1c0.7,1.9,1.3,3.9,1.8,5.9c0,0,0,0,0,0c0.2,0.9,0.4,1.9,0.6,2.9c0,0.1,0,0.2,0.1,0.3c0.2,0.9,0.3,1.8,0.4,2.8
	c0,0.1,0,0.3,0,0.4c0.1,0.9,0.2,1.9,0.2,2.8c0,0.1,0,0.2,0,0.4c0.1,1,0.1,2,0.1,3C244,183.8,241.5,192.8,236.7,201z"/>
<path id="red_x5F_cross_x5F_big_2_" class="st0" d="M219.1,198.6l-4.8,4.8c-0.6,0.6-1.4,0.9-2.3,0.9s-1.7-0.3-2.4-0.9l-19.5-19.6
	l-19.5,19.6c-0.7,0.6-1.5,0.9-2.4,0.9c-0.9,0-1.7-0.3-2.3-0.9l-4.8-4.8c-0.6-0.6-0.9-1.4-0.9-2.3s0.3-1.7,0.9-2.4l19.6-19.5
	L161.3,155c-0.6-0.7-0.9-1.5-0.9-2.4c0-0.9,0.3-1.7,0.9-2.3l4.8-4.8c0.6-0.6,1.4-0.9,2.3-0.9c0.9,0,1.7,0.3,2.4,0.9l19.5,19.5
	l19.5-19.5c0.7-0.6,1.5-0.9,2.4-0.9s1.7,0.3,2.3,0.9l4.8,4.8c0.6,0.6,0.9,1.4,0.9,2.3c0,0.9-0.3,1.7-0.9,2.4l-19.5,19.5l19.5,19.5
	c0.6,0.7,0.9,1.5,0.9,2.4S219.7,197.9,219.1,198.6z"/>
</svg>
