<?xml version="1.0" encoding="utf-8"?>
<!-- Generator: Adobe Illustrator 24.1.3, SVG Export Plug-In . SVG Version: 6.00 Build 0)  -->
<svg version="1.1" id="Ebene_1" xmlns="http://www.w3.org/2000/svg" xmlns:xlink="http://www.w3.org/1999/xlink" x="0px" y="0px"
	 viewBox="0 0 256 256" style="enable-background:new 0 0 256 256;" xml:space="preserve">
<style type="text/css">
	.st0{fill:#FFFFFF;}
</style>
<path class="st0" d="M41.9,71.4c0,3.4-2.8,6.1-6.1,6.1c-3.4,0-6.1-2.8-6.1-6.1c0-3.4,2.8-6.1,6.1-6.1C39.1,65.3,41.9,68,41.9,71.4z
	 M35.8,109.4c-3.4,0-6.1,2.8-6.1,6.1c0,3.4,2.8,6.1,6.1,6.1c3.4,0,6.1-2.8,6.1-6.1C41.9,112.2,39.1,109.4,35.8,109.4z M35.8,94.7
	c-3.4,0-6.1,2.8-6.1,6.1c0,3.4,2.8,6.1,6.1,6.1c3.4,0,6.1-2.8,6.1-6.1C41.9,97.4,39.1,94.7,35.8,94.7z M35.8,79.9
	c-3.4,0-6.1,2.8-6.1,6.1c0,3.4,2.8,6.1,6.1,6.1c3.4,0,6.1-2.8,6.1-6.1C41.9,82.7,39.1,79.9,35.8,79.9z M35.8,124.2
	c-3.4,0-6.1,2.8-6.1,6.1c0,3.4,2.8,6.1,6.1,6.1c3.4,0,6.1-2.8,6.1-6.1C41.9,126.9,39.1,124.2,35.8,124.2z M35.8,138.9
	c-3.4,0-6.1,2.8-6.1,6.1s2.8,6.1,6.1,6.1c3.4,0,6.1-2.8,6.1-6.1S39.1,138.9,35.8,138.9z M6.1,79.9C2.7,79.9,0,82.7,0,86
	c0,3.4,2.8,6.1,6.1,6.1s6.1-2.8,6.1-6.1C12.3,82.7,9.5,79.9,6.1,79.9z M6.1,94.7c-3.4,0-6.1,2.8-6.1,6.1c0,3.4,2.8,6.1,6.1,6.1
	s6.1-2.8,6.1-6.1C12.3,97.4,9.5,94.7,6.1,94.7z M20.9,79.9c-3.4,0-6.1,2.8-6.1,6.1c0,3.4,2.8,6.1,6.1,6.1S27,89.3,27,86
	C27.1,82.7,24.3,79.9,20.9,79.9z M20.9,94.7c-3.4,0-6.1,2.8-6.1,6.1c0,3.4,2.8,6.1,6.1,6.1s6.1-2.8,6.1-6.1
	C27.1,97.4,24.3,94.7,20.9,94.7z M50.6,138.9c-3.4,0-6.1,2.8-6.1,6.1s2.8,6.1,6.1,6.1c3.4,0,6.1-2.8,6.1-6.1S54,138.9,50.6,138.9z
	 M65.5,94.7c-3.4,0-6.1,2.8-6.1,6.1c0,3.4,2.8,6.1,6.1,6.1c3.4,0,6.1-2.8,6.1-6.1C71.7,97.4,68.9,94.7,65.5,94.7z M65.5,79.9
	c-3.4,0-6.1,2.8-6.1,6.1c0,3.4,2.8,6.1,6.1,6.1c3.4,0,6.1-2.8,6.1-6.1C71.7,82.7,68.9,79.9,65.5,79.9z M50.6,50.6
	c-3.4,0-6.1,2.8-6.1,6.1c0,3.4,2.8,6.1,6.1,6.1c3.4,0,6.1-2.8,6.1-6.1C56.8,53.4,54,50.6,50.6,50.6z M86.5,86.1
	c0-3.4-2.8-6.1-6.1-6.1c-3.4,0-6.1,2.8-6.1,6.1c0,3.4,2.8,6.1,6.1,6.1C83.8,92.2,86.5,89.5,86.5,86.1z M50.6,65.3
	c-3.4,0-6.1,2.8-6.1,6.1c0,3.4,2.8,6.1,6.1,6.1c3.4,0,6.1-2.8,6.1-6.1C56.8,68,54,65.3,50.6,65.3z M50.6,94.7
	c-3.4,0-6.1,2.8-6.1,6.1c0,3.4,2.8,6.1,6.1,6.1c3.4,0,6.1-2.8,6.1-6.1C56.8,97.4,54,94.7,50.6,94.7z M50.6,109.4
	c-3.4,0-6.1,2.8-6.1,6.1c0,3.4,2.8,6.1,6.1,6.1c3.4,0,6.1-2.8,6.1-6.1C56.8,112.2,54,109.4,50.6,109.4z M50.6,124.2
	c-3.4,0-6.1,2.8-6.1,6.1c0,3.4,2.8,6.1,6.1,6.1c3.4,0,6.1-2.8,6.1-6.1C56.8,126.9,54,124.2,50.6,124.2z M50.6,79.9
	c-3.4,0-6.1,2.8-6.1,6.1c0,3.4,2.8,6.1,6.1,6.1c3.4,0,6.1-2.8,6.1-6.1C56.8,82.7,54,79.9,50.6,79.9z M245.8,143.2
	c4.8,9,7.2,18.8,7.2,29.3c0,11.4-2.8,22-8.4,31.6c-5.6,9.6-13.3,17.3-22.9,22.9c-9.6,5.6-20.2,8.4-31.6,8.4s-22-2.8-31.6-8.4
	c-9.6-5.6-17.3-13.3-22.9-22.9c-5.6-9.6-8.4-20.2-8.4-31.6c0-7.5,1.2-14.7,3.7-21.4h-26.5H85.6c-3.3-6.3-5.2-13.4-5.2-21
	c0-19.7,12.8-36.4,30.5-42.3c-8.8-7-14.4-17.8-14.4-29.9c0-21.2,17.2-38.3,38.3-38.3c17.9,0,33,12.3,37.1,28.9
	c5.8-2.9,12.3-4.5,19.2-4.5c23.8,0,43,19.3,43,43c0,1.3-0.1,2.5-0.2,3.7c12.7,3.8,22,15.6,22,29.5
	C256,129.4,252.1,137.5,245.8,143.2z M244,172.5c0-1,0-2-0.1-3c0-0.1,0-0.2,0-0.4c-0.1-0.9-0.1-1.9-0.2-2.8c0-0.1,0-0.3,0-0.4
	c-0.1-0.9-0.2-1.9-0.4-2.8c0-0.1,0-0.2-0.1-0.3c-0.2-1-0.4-1.9-0.6-2.9l0,0c-0.5-2-1.1-3.9-1.8-5.9v-0.1c-0.3-0.9-0.7-1.9-1.1-2.8
	c0,0,0-0.1-0.1-0.1c-0.8-1.9-1.8-3.7-2.8-5.5c-4.8-8.3-11.4-14.8-19.6-19.6c-8.3-4.8-17.3-7.2-27-7.2c-9.8,0-18.8,2.4-27,7.2
	c-8.3,4.8-14.8,11.4-19.6,19.6c-2,3.4-3.6,7-4.8,10.7l0,0c-0.3,0.9-0.5,1.7-0.7,2.6l0,0c-0.2,0.8-0.4,1.7-0.6,2.6v0.1
	c-0.2,0.8-0.3,1.7-0.4,2.5c0,0.1,0,0.2,0,0.3c-0.1,0.8-0.2,1.6-0.3,2.4c0,0.1,0,0.1,0,0.2c-0.1,0.8-0.1,1.7-0.2,2.5
	c0,0.2,0,0.4,0,0.5c0,0.8-0.1,1.7-0.1,2.5c0,9.8,2.4,18.8,7.2,27c4.8,8.3,11.4,14.8,19.6,19.6c8.3,4.8,17.3,7.2,27,7.2
	c9.8,0,18.8-2.4,27-7.2c8.3-4.8,14.8-11.4,19.6-19.6C241.5,191.3,244,182.3,244,172.5z"/>
<path id="hook_x5F_big" class="st0" d="M229.2,159.6l-45.4,45.4c-1,1-2.2,1.5-3.6,1.5c-1.4,0-2.6-0.5-3.6-1.5L155,183.2
	c-1-1-1.5-2.2-1.5-3.6c0-1.4,0.5-2.6,1.5-3.6l1.3-1.3c1-1,2.2-1.5,3.6-1.5s2.6,0.5,3.6,1.5l16.5,16.5l40.5-40.5c1-1,2.2-1.5,3.6-1.5
	c1.4,0,2.6,0.5,3.6,1.5l1.7,1.7c1,1,1.5,2.2,1.5,3.6S230.2,158.6,229.2,159.6z"/>
</svg>
