<?xml version="1.0" encoding="UTF-8" standalone="no"?>
<svg
   xmlns:dc="http://purl.org/dc/elements/1.1/"
   xmlns:cc="http://creativecommons.org/ns#"
   xmlns:rdf="http://www.w3.org/1999/02/22-rdf-syntax-ns#"
   xmlns:svg="http://www.w3.org/2000/svg"
   xmlns="http://www.w3.org/2000/svg"
   xmlns:sodipodi="http://sodipodi.sourceforge.net/DTD/sodipodi-0.dtd"
   xmlns:inkscape="http://www.inkscape.org/namespaces/inkscape"
   version="1.1"
   id="Ebene_1"
   x="0px"
   y="0px"
   viewBox="0 0 16 16"
   style="enable-background:new 0 0 16 16;"
   xml:space="preserve"
   sodipodi:docname="favicon.svg"
   inkscape:version="0.92.3 (2405546, 2018-03-11)"><metadata
   id="metadata15"><rdf:RDF><cc:Work
       rdf:about=""><dc:format>image/svg+xml</dc:format><dc:type
         rdf:resource="http://purl.org/dc/dcmitype/StillImage" /></cc:Work></rdf:RDF></metadata><defs
   id="defs13" /><sodipodi:namedview
   pagecolor="#ffffff"
   bordercolor="#666666"
   borderopacity="1"
   objecttolerance="10"
   gridtolerance="10"
   guidetolerance="10"
   inkscape:pageopacity="0"
   inkscape:pageshadow="2"
   inkscape:window-width="1680"
   inkscape:window-height="989"
   id="namedview11"
   showgrid="false"
   inkscape:zoom="14.75"
   inkscape:cx="-1.8983051"
   inkscape:cy="8"
   inkscape:window-x="0"
   inkscape:window-y="0"
   inkscape:window-maximized="1"
   inkscape:current-layer="Ebene_1" />
<ellipse
   style="fill:#ffffff;fill-opacity:1"
   id="path815"
   cx="8"
   cy="8.0677967"
   rx="7.8644066"
   ry="7.9322033" /><path
   d="M15.7,8c0,4.2-3.4,7.7-7.7,7.7c-4.2,0-7.7-3.4-7.7-7.7c0-4.2,3.4-7.7,7.7-7.7C12.2,0.3,15.7,3.8,15.7,8 M16,8  c0-4.4-3.6-8-8-8C3.6,0,0,3.6,0,8c0,4.4,3.6,8,8,8C12.4,16,16,12.4,16,8"
   id="path2"
   style="fill:#aa8800;fill-opacity:1" />
<path
   d="M12.3,6.4c-0.9,0-1.6,0.9-2.3,2.6c-0.7,1.8-1,3.5-1,5.2c0,0.3,0,0.5,0,0.7c1.4-0.2,2.7-0.8,3.7-1.7c0.5-1.6,0.8-3.1,0.8-4.6  c0-0.8,0-1.3-0.2-1.7C13,6.6,12.7,6.4,12.3,6.4z"
   id="path4"
   style="fill:#aa8800;fill-opacity:1" />
<path
   d="M5.3,7.2c2.1-1.5,2.4-2.1,2.3-3.4c0-0.6-0.3-1.1-0.6-1.4C6.6,2,6.1,1.9,5.5,1.9C4.9,1.9,4.3,2,3.9,2.4  C3.7,2.6,3.4,3.1,3.2,4l0,0.2h-1C1.4,5.3,1,6.6,1,8c0,0.7,0.1,1.5,0.3,2.1C1.7,9.6,2.3,9.2,3,8.8C3.8,8.2,5.3,7.2,5.3,7.2z"
   id="path6"
   style="fill:#aa8800;fill-opacity:1" />
<path
   d="M8.1,1C8.4,1.1,8.7,1.2,9,1.4c0.7,0.5,1.2,1.1,1.3,2.2c0.1,0.6,0,1-0.2,1.5C9.9,5.8,9.4,6.4,7.3,7.4c0,0-1.8,0.8-2.5,1.3  C4,9.2,3.3,9.8,2.4,11.2l3.8,0l-0.5,2.5H3.9c0.8,0.6,1.8,1,2.9,1.2c-0.1-0.4-0.3-0.8-0.3-1.2h1.6h0.4L9,11.2H6.7  C6.9,10,7.4,8.9,8.2,7.9c1.1-1.5,2.7-2.2,4.2-2.2c1.1,0,1.9,0.3,2.5,1C14.2,3.5,11.5,1.1,8.1,1z"
   id="path8"
   style="fill:#aa8800;fill-opacity:1" />
</svg>