<?xml version="1.0" encoding="utf-8"?>
<!-- Generator: Adobe Illustrator 24.1.3, SVG Export Plug-In . SVG Version: 6.00 Build 0)  -->
<svg version="1.1" id="Ebene_1" xmlns="http://www.w3.org/2000/svg" xmlns:xlink="http://www.w3.org/1999/xlink" x="0px" y="0px"
	 viewBox="0 0 256 256" style="enable-background:new 0 0 256 256;" xml:space="preserve">
<path d="M106.2,116.4c0-29.3-23.8-53.1-53.1-53.1c-3.1,0-6,0.3-9,0.8C19.1,68.3,0,90.1,0,116.4c0,29.3,23.8,53.1,53.1,53.1
	c11.3,0,21.7-3.5,30.3-9.5C97.2,150.4,106.2,134.5,106.2,116.4z M53.1,167.2c-28.1,0-50.8-22.7-50.8-50.8
	c0-28.1,22.7-50.8,50.8-50.8c28.1,0,50.8,22.7,50.8,50.8C103.9,144.5,81.2,167.2,53.1,167.2z M87.8,109.3c1.4,2.5,1.6,6.2,1.6,11.2
	c0,9.7-1.7,19.8-5.2,30.3c-6.6,6-15,10.1-24.3,11.5c-0.2-1.4-0.3-2.9-0.3-4.6c0-11,2.2-22.6,6.7-34.6c4.3-11.7,9-17.5,15-17.5
	C84.3,105.6,86.4,106.8,87.8,109.3z M21.3,89.9L21,91h-6.7c-4.8,7.3-7.6,16-7.6,25.4c0,5,0.8,9.7,2.2,14.2c2.6-3.3,6.1-6.1,10.8-9.2
	c5.3-3.5,15.3-10,15.3-10c13.8-9.7,15.8-13.8,15.2-22.6c-0.3-4-1.7-7.1-4.2-9.5c-2.5-2.4-5.7-3.6-9.7-3.6c-4.1,0-7.7,1.2-10.7,3.7
	C24.2,80.5,22.8,84,21.3,89.9z M43.3,154.1h10.5h2.5l3.5-16.6H44.3c1.7-8,5.1-15.3,10.1-21.9c7.6-9.8,17.6-14.7,27.8-14.7
	c7,0,12.4,2.2,16.3,6.5C94.5,86.4,76,70.4,53.8,70c2.2,0.4,4.3,1.2,6.1,2.5c4.5,3,7.7,7.6,8.8,14.8c0.6,3.7-0.1,6.9-1.3,9.8
	c-1.8,4.5-5.3,8.4-18.9,15.3c0,0-11.7,5.5-16.7,8.7c-5,3.2-10,7-16.2,16.5l25,0l-3.5,16.5H26.1c5.6,4,12.1,6.8,19.2,8
	C44.3,159.7,43.6,157,43.3,154.1z M256,126.6c0-18.8-15.2-34-34-34c-5.7,0-11.1,1.4-15.9,4c-3-22.7-22.4-40.3-45.9-40.3
	c-5.9,0-11.6,1.1-16.8,3.2c-7.7-19.5-26.7-33.3-48.9-33.3c-23.9,0-44.1,16-50.4,37.8c2.9-0.5,5.9-0.8,9-0.8
	c29.3,0,53.1,23.8,53.1,53.1c0,18-9,34-22.8,43.6c2.7,0.8,5.6,1.3,8.6,1.3c6,0,11.6-1.7,16.3-4.7c3.9,3.7,8.4,6.7,13.3,8.9
	l26.8-46.3c4.3-7.6,11.9-11.9,20.6-11.9c8.7,0,16.3,4.7,20.2,11.9l23.2,40.1c3,0.9,6.2,1.4,9.5,1.4C240.8,160.6,256,145.4,256,126.6
	z M168.7,207.3c3.6,0,6.9-3.3,6.9-6.9c0.4-4-2.9-6.9-6.9-6.9c-3.6,0-6.9,3.3-6.9,6.9C161.9,204,165.1,207.3,168.7,207.3z
	 M199.3,157.3l24.3,42c2.2,4.3,2.2,9-0.4,13c-2.5,4-6.5,6.5-11.6,6.5h-86c-4.7,0-9-2.5-11.2-6.5c-2.5-4-2.5-9,0-13l17.6-30.7
	c-3.7-0.7-7.2-1.7-10.5-3.2l-16.5,28.5c-4.3,7.6-4.3,16.6,0,23.9c4.3,7.2,11.9,11.9,20.6,11.9h86.3c8.7,0.4,16.3-4.3,20.6-11.9
	c4.3-7.6,4.3-16.3,0-23.9l-20.1-34.7c-2.8-0.8-5.4-2-7.8-3.4C203,156.4,201.1,156.9,199.3,157.3z M169.1,107.1
	c-8.7,0-16.3,4.3-20.6,11.9l-26.8,46.3c3.3,1.5,6.9,2.6,10.5,3.2l25.3-44.1c2.5-4,6.5-6.5,11.6-6.5c4.7,0,9,2.5,11.2,6.5l19,32.8
	c1.9-0.4,3.7-0.9,5.5-1.5c2.4,1.4,5,2.6,7.8,3.4l-23.2-40.1C185.3,111.8,177.7,107.1,169.1,107.1z M162.4,163.6
	c0.4,6.8,0.9,13.6,1.2,20.2c0,2.9,2.2,4.7,5.1,4.7c2.9,0,5.1-2.2,5.1-5.1c0-1.8,0-3.3,0-5.1c0.4-5.4,0.7-10.5,1.1-15.9
	c0-1.7,0.1-3.3,0.2-5c-1.1-0.2-2.1-0.5-3.1-0.8C169.1,159.4,165.9,161.7,162.4,163.6z M174.9,148.4c-1.1-2.5-4.3-4-7.6-3.3
	c-3.3,1.1-5.4,4-5.4,7.6c0,2.2,0.4,4.3,0.4,6.5c0.1,1.5,0.1,2.9,0.2,4.4c3.5-1.9,6.6-4.2,9.5-6.9c1,0.3,2.1,0.6,3.1,0.8
	c0.1-1.8,0.3-3.6,0.5-5.5C175.6,150.9,175.6,149.8,174.9,148.4z"/>
</svg>
