<?xml version="1.0" encoding="utf-8"?>
<!-- Generator: Adobe Illustrator 24.1.3, SVG Export Plug-In . SVG Version: 6.00 Build 0)  -->
<svg version="1.1" id="Ebene_1" xmlns="http://www.w3.org/2000/svg" xmlns:xlink="http://www.w3.org/1999/xlink" x="0px" y="0px"
	 viewBox="0 0 256 256" style="enable-background:new 0 0 256 256;" xml:space="preserve">
<path d="M87.8,98.7c1.4,2.5,1.6,6.2,1.6,11.2c0,9.7-1.7,19.8-5.2,30.3c-6.6,6-15,10.1-24.3,11.5c-0.2-1.4-0.3-2.9-0.3-4.6
	c0-11,2.2-22.6,6.7-34.6c4.3-11.7,9-17.5,15-17.5C84.3,94.9,86.4,96.2,87.8,98.7z M21.3,79.3l-0.3,1h-6.7c-4.8,7.3-7.6,16-7.6,25.4
	c0,5,0.8,9.7,2.2,14.2c2.6-3.3,6.1-6.1,10.8-9.2c5.3-3.5,15.3-10,15.3-10C48.9,91,50.8,86.9,50.3,78.1c-0.3-4-1.7-7.1-4.2-9.5
	c-2.5-2.4-5.7-3.6-9.7-3.6c-4.1,0-7.7,1.2-10.7,3.7C24.2,69.8,22.8,73.4,21.3,79.3z M43.3,143.5h10.5h2.5l3.5-16.6H44.3
	c1.7-8,5.1-15.3,10.1-21.9c7.6-9.8,17.6-14.7,27.8-14.7c7,0,12.4,2.2,16.3,6.5C94.5,75.7,76,59.7,53.8,59.4c2.2,0.4,4.3,1.2,6.1,2.5
	c4.5,3,7.7,7.6,8.8,14.8c0.6,3.7-0.1,6.9-1.3,9.8c-1.8,4.5-5.3,8.4-18.9,15.3c0,0-11.7,5.5-16.7,8.7c-5,3.2-10,7-16.2,16.5l25,0
	l-3.5,16.5H26.1c5.6,4,12.1,6.8,19.2,8C44.3,149.1,43.6,146.4,43.3,143.5z M106.2,105.8c0-29.3-23.8-53.1-53.1-53.1
	c-3.1,0-6,0.3-9,0.8C19.1,57.7,0,79.5,0,105.8c0,29.3,23.8,53.1,53.1,53.1c11.3,0,21.7-3.5,30.3-9.5
	C97.2,139.7,106.2,123.8,106.2,105.8z M53.1,156.6c-28.1,0-50.8-22.7-50.8-50.8c0-28.1,22.7-50.8,50.8-50.8
	c28.1,0,50.8,22.7,50.8,50.8C103.9,133.8,81.2,156.6,53.1,156.6z M256,116c0-18.8-15.2-34-34-34c-5.7,0-11.1,1.4-15.9,4
	c-3-22.7-22.4-40.3-45.9-40.3c-5.9,0-11.6,1.1-16.8,3.2c-7.7-19.5-26.7-33.3-48.9-33.3c-23.9,0-44.1,16-50.4,37.8
	c2.9-0.5,5.9-0.8,9-0.8c29.3,0,53.1,23.8,53.1,53.1c0,18-9,34-22.8,43.6c2.7,0.8,5.6,1.3,8.6,1.3c2.6,0,5-0.3,7.4-0.9
	c1.6-6,4-11.7,7.2-17.2c6.4-11,15.2-19.8,26.2-26.2c11-6.4,23.1-9.7,36.2-9.7c13.1,0,25.1,3.2,36.2,9.7c11,6.4,19.8,15.2,26.2,26.2
	c2.6,4.4,4.6,8.9,6.1,13.6C248.6,140.5,256,129.1,256,116z M230.8,168.7c0,11.2-2.8,21.5-8.3,31c-5.5,9.5-13,16.9-22.5,22.5
	c-9.5,5.5-19.8,8.3-31,8.3c-11.2,0-21.5-2.8-31-8.3c-9.5-5.5-16.9-13-22.5-22.5c-5.5-9.5-8.3-19.8-8.3-31c0-7.2,1.2-14.1,3.5-20.6
	c-0.9-0.7-1.7-1.4-2.5-2.2c-2.7,1.7-5.7,3-8.9,3.8c-1.6,6.1-2.5,12.4-2.5,19c0,13.1,3.2,25.1,9.7,36.2c6.4,11,15.2,19.8,26.2,26.2
	c11,6.4,23.1,9.7,36.2,9.7c13.1,0,25.1-3.2,36.2-9.7c11-6.4,19.8-15.2,26.2-26.2c6.4-11,9.7-23.1,9.7-36.2c0-7.9-1.2-15.4-3.5-22.5
	c-3,1.6-6.4,2.7-9.8,3.3C229.8,155.5,230.8,161.9,230.8,168.7z M205.3,106.2c-11-6.4-23.1-9.7-36.2-9.7c-13.1,0-25.1,3.2-36.2,9.7
	c-11,6.4-19.8,15.2-26.2,26.2c-3.2,5.5-5.6,11.2-7.2,17.2c3.2-0.8,6.2-2.1,8.9-3.8c0.8,0.8,1.6,1.5,2.5,2.2c1.3-3.6,2.9-7,4.8-10.4
	c5.5-9.5,13-16.9,22.5-22.5c9.5-5.5,19.8-8.3,31-8.3c11.2,0,21.5,2.8,31,8.3c9.5,5.5,16.9,13,22.5,22.5c2.2,3.8,4,7.7,5.3,11.7
	c3.5-0.6,6.8-1.7,9.8-3.3c-1.5-4.7-3.6-9.3-6.1-13.6C225.1,121.4,216.3,112.7,205.3,106.2z M130.8,170.3
	C130.8,170.3,130.8,170.3,130.8,170.3l5.4,0c1.1,0,2-0.9,2-2c0-6.7,2.2-13.2,6.3-18.5c5.8-7.6,14.6-11.9,24.2-11.9
	c6.7,0,13.1,2.2,18.5,6.3c1.8,1.4,3.4,2.9,4.8,4.5l-10-1.8c-0.5-0.1-1.1,0-1.5,0.3c-0.4,0.3-0.7,0.8-0.8,1.3l-0.9,5.3
	c-0.2,1.1,0.5,2.2,1.6,2.4l24,4.2c0.1,0,0.2,0,0.4,0c0.4,0,0.8-0.1,1.2-0.4c0.4-0.3,0.7-0.8,0.8-1.3l4.2-24c0.2-1.1-0.5-2.2-1.6-2.4
	l-5.3-0.9c-1.1-0.2-2.2,0.5-2.4,1.6l-1.8,10.1c-2-2.5-4.3-4.7-6.8-6.7c-7-5.4-15.4-8.2-24.3-8.2c-12.6,0-24.2,5.7-31.8,15.7
	c-5.4,7-8.2,15.4-8.2,24.3c0,0.5,0.2,1.1,0.6,1.4C129.8,170.1,130.3,170.3,130.8,170.3z M210.5,169.5c-0.4-0.4-0.9-0.6-1.4-0.6
	c0,0,0,0,0,0l-5.4,0c-1.1,0-2,0.9-2,2c0,6.7-2.2,13.2-6.3,18.5c-5.8,7.6-14.6,11.9-24.2,11.9c-6.7,0-13.1-2.2-18.5-6.3
	c-1.8-1.4-3.4-2.9-4.8-4.5l10,1.8c0.5,0.1,1.1,0,1.5-0.3c0.4-0.3,0.7-0.8,0.8-1.3l0.9-5.3c0.2-1.1-0.5-2.2-1.6-2.4l-24-4.2
	c-0.5-0.1-1.1,0-1.5,0.3c-0.4,0.3-0.7,0.8-0.8,1.3l-4.2,24c-0.2,1.1,0.5,2.2,1.6,2.4l5.3,0.9c0.1,0,0.2,0,0.4,0c1,0,1.8-0.7,2-1.7
	L140,196c2,2.5,4.3,4.7,6.8,6.7c7,5.4,15.4,8.2,24.3,8.2c12.6,0,24.2-5.7,31.8-15.7c5.4-7,8.2-15.4,8.2-24.3
	C211.1,170.4,210.9,169.9,210.5,169.5z"/>
</svg>
