<?xml version="1.0" encoding="utf-8"?>
<!-- Generator: Adobe Illustrator 24.1.3, SVG Export Plug-In . SVG Version: 6.00 Build 0)  -->
<svg version="1.1" id="Ebene_1" xmlns="http://www.w3.org/2000/svg" xmlns:xlink="http://www.w3.org/1999/xlink" x="0px" y="0px"
	 viewBox="0 0 256 256" style="enable-background:new 0 0 256 256;" xml:space="preserve">
<style type="text/css">
	.st0{stroke:#000000;stroke-width:3.0037;stroke-miterlimit:10;}
	.st1{fill:none;}
</style>
<path class="st0" d="M169.1,191.3c2.5,0,4.6,2.1,4.6,4.6s-2.1,4.6-4.6,4.6s-4.6-2.1-4.6-4.6S166.5,191.3,169.1,191.3z M177.2,186.7
	c0.8,0.8,1.9,1.2,3,1.2c1.1,0,2.1-0.4,3-1.2c1.6-1.6,1.6-4.3,0-5.9c-2.3-2.3-5-3.9-7.9-4.8l-7.5,7.5
	C171.1,183.1,174.6,184.2,177.2,186.7z M189.5,174.4c0.8,0.8,1.9,1.2,3,1.2c1.1,0,2.1-0.4,3-1.2c1.6-1.6,1.6-4.3,0-5.9
	c-2.2-2.2-4.6-4-7.1-5.6l-6.2,6.2C184.8,170.4,187.3,172.2,189.5,174.4z M142.7,168.5c-1.6,1.6-1.6,4.3,0,5.9
	c1.3,1.3,3.2,1.5,4.8,0.8l17.4-17.4C156.8,158.7,148.9,162.3,142.7,168.5z M129,154.8c-1.6,1.6-1.6,4.3,0,5.9c1.6,1.6,4.3,1.6,5.9,0
	c9.1-9.1,21.3-14.1,34.2-14.1c2.2,0,4.5,0.2,6.6,0.5l7.1-7.1C164.2,135.2,143.6,140.2,129,154.8z M202.3,148.9l-6,6
	c2.5,1.7,4.8,3.6,6.9,5.8c0.8,0.8,1.9,1.2,3,1.2c1.1,0,2.1-0.4,3-1.2c1.6-1.6,1.6-4.3,0-5.9C207,152.6,204.7,150.6,202.3,148.9z"/>
<g>
	<path class="st1" d="M200.1,115.2c-9.5-5.5-19.8-8.3-31-8.3c-11.2,0-21.5,2.8-31,8.3c-9.5,5.5-16.9,13-22.5,22.5
		c-2,3.4-3.6,6.8-4.8,10.4c-2.3,6.5-3.5,13.3-3.5,20.6c0,11.2,2.8,21.5,8.3,31c1.7,2.9,3.6,5.6,5.7,8.2l86.9-86.9
		C205.7,118.8,203,116.9,200.1,115.2z"/>
	<path class="st1" d="M53.1,54.9C25,54.9,2.3,77.7,2.3,105.8c0,28.1,22.7,50.8,50.8,50.8c28.1,0,50.8-22.7,50.8-50.8
		C103.9,77.7,81.2,54.9,53.1,54.9z M8.9,120c-1.4-4.5-2.2-9.3-2.2-14.2c0-9.4,2.8-18.1,7.6-25.4H21l0.3-1c1.5-5.9,3-9.4,4.4-10.5
		c3.1-2.5,6.7-3.7,10.7-3.7c4,0,7.2,1.2,9.7,3.6c2.5,2.4,3.9,5.5,4.2,9.5c0.6,8.8-1.4,12.9-15.2,22.6c0,0-10,6.5-15.3,10
		C15.1,113.9,11.6,116.7,8.9,120z M84.2,140.1c-6.6,6-15,10.1-24.3,11.5c-0.2-1.4-0.3-2.9-0.3-4.6c0-11,2.2-22.6,6.7-34.6
		c4.3-11.7,9-17.5,15-17.5c2.9,0,5.1,1.2,6.5,3.7c1.4,2.5,1.6,6.2,1.6,11.2C89.4,119.6,87.7,129.6,84.2,140.1z M82.3,90.4
		c-10.2,0-20.2,4.8-27.8,14.7c-5.1,6.5-8.4,13.8-10.1,21.9h15.4l-3.5,16.6h-2.5H43.3c0.3,2.9,1,5.6,2,8c-7.1-1.2-13.6-4-19.2-8h11.2
		l3.5-16.5l-25,0c6.2-9.5,11.2-13.4,16.2-16.5c5-3.2,16.7-8.7,16.7-8.7C62.1,94.9,65.6,91,67.4,86.5c1.2-2.9,1.8-6.1,1.3-9.8
		c-1.1-7.2-4.3-11.8-8.8-14.8c-1.8-1.3-3.8-2.1-6.1-2.5C76,59.7,94.5,75.7,98.6,96.9C94.7,92.5,89.3,90.4,82.3,90.4z"/>
	<path class="st1" d="M222.5,137.7c-1.9-3.2-4-6.2-6.4-9l-87,87c2.8,2.3,5.8,4.5,9,6.4c9.5,5.5,19.8,8.3,31,8.3
		c11.2,0,21.5-2.8,31-8.3s16.9-13,22.5-22.5c5.5-9.5,8.3-19.8,8.3-31c0-6.7-1-13.1-3-19.2C226.5,145.4,224.7,141.5,222.5,137.7z"/>
	<path d="M35.1,100.7C48.9,91,50.8,86.9,50.3,78.1c-0.3-4-1.7-7.1-4.2-9.5c-2.5-2.4-5.7-3.6-9.7-3.6c-4.1,0-7.7,1.2-10.7,3.7
		c-1.4,1.1-2.8,4.6-4.4,10.5l-0.3,1h-6.7c-4.8,7.3-7.6,16-7.6,25.4c0,5,0.8,9.7,2.2,14.2c2.6-3.3,6.1-6.1,10.8-9.2
		C25.1,107.2,35.1,100.7,35.1,100.7z"/>
	<path d="M53.8,59.4c2.2,0.4,4.3,1.2,6.1,2.5c4.5,3,7.7,7.6,8.8,14.8c0.6,3.7-0.1,6.9-1.3,9.8c-1.8,4.5-5.3,8.4-18.9,15.3
		c0,0-11.7,5.5-16.7,8.7c-5,3.2-10,7-16.2,16.5l25,0l-3.5,16.5H26.1c5.6,4,12.1,6.8,19.2,8c-1-2.4-1.7-5.1-2-8h10.5h2.5l3.5-16.6
		H44.3c1.7-8,5.1-15.3,10.1-21.9c7.6-9.8,17.6-14.7,27.8-14.7c7,0,12.4,2.2,16.3,6.5C94.5,75.7,76,59.7,53.8,59.4z"/>
	<path d="M81.4,94.9c-6.1,0-10.7,5.9-15,17.5c-4.5,12-6.7,23.6-6.7,34.6c0,1.7,0.1,3.2,0.3,4.6c9.3-1.4,17.7-5.5,24.3-11.5
		c3.5-10.5,5.2-20.6,5.2-30.3c0-5-0.2-8.7-1.6-11.2C86.4,96.2,84.3,94.9,81.4,94.9z"/>
	<path d="M256,116c0-18.8-15.2-34-34-34c-5.7,0-11.1,1.4-15.9,4c-3-22.7-22.4-40.3-45.9-40.3c-5.9,0-11.6,1.1-16.8,3.2
		c-7.7-19.5-26.7-33.3-48.9-33.3c-23.9,0-44.1,16-50.4,37.8C19.1,57.7,0,79.5,0,105.8c0,29.3,23.8,53.1,53.1,53.1
		c11.3,0,21.7-3.5,30.3-9.5c2.7,0.8,5.6,1.3,8.6,1.3c2.6,0,5-0.3,7.4-0.9c-1.6,6.1-2.5,12.4-2.5,19c0,13.1,3.2,25.1,9.7,36.2
		c6.4,11,15.2,19.8,26.2,26.2c11,6.4,23.1,9.7,36.2,9.7c13.1,0,25.1-3.2,36.2-9.7c11-6.4,19.8-15.2,26.2-26.2
		c6.4-11,9.7-23.1,9.7-36.2c0-7.9-1.2-15.4-3.5-22.5C248.6,140.5,256,129.1,256,116z M53.1,156.6c-28.1,0-50.8-22.7-50.8-50.8
		c0-28.1,22.7-50.8,50.8-50.8c28.1,0,50.8,22.7,50.8,50.8C103.9,133.8,81.2,156.6,53.1,156.6z M115.7,199.6
		c-5.5-9.5-8.3-19.8-8.3-31c0-7.2,1.2-14.1,3.5-20.6c1.3-3.6,2.9-7,4.8-10.4c5.5-9.5,13-16.9,22.5-22.5c9.5-5.5,19.8-8.3,31-8.3
		c11.2,0,21.5,2.8,31,8.3c2.9,1.7,5.6,3.6,8.2,5.7l-86.9,86.9C119.3,205.2,117.4,202.5,115.7,199.6z M222.5,199.6
		c-5.5,9.5-13,16.9-22.5,22.5s-19.8,8.3-31,8.3c-11.2,0-21.5-2.8-31-8.3c-3.2-1.9-6.2-4-9-6.4l87-87c2.3,2.8,4.5,5.8,6.4,9
		c2.2,3.8,4,7.7,5.3,11.7c2,6.1,3,12.5,3,19.2C230.8,179.9,228,190.2,222.5,199.6z"/>
</g>
</svg>
