<?xml version="1.0" encoding="utf-8"?>
<!-- Generator: Adobe Illustrator 24.0.3, SVG Export Plug-In . SVG Version: 6.00 Build 0)  -->
<svg version="1.1"
	 id="Layer_1" xmlns:cc="http://creativecommons.org/ns#" xmlns:dc="http://purl.org/dc/elements/1.1/" xmlns:inkscape="http://www.inkscape.org/namespaces/inkscape" xmlns:rdf="http://www.w3.org/1999/02/22-rdf-syntax-ns#" xmlns:sodipodi="http://sodipodi.sourceforge.net/DTD/sodipodi-0.dtd" xmlns:svg="http://www.w3.org/2000/svg"
	 xmlns="http://www.w3.org/2000/svg" xmlns:xlink="http://www.w3.org/1999/xlink" x="0px" y="0px" viewBox="0 0 32 32"
	 style="enable-background:new 0 0 32 32;" xml:space="preserve">
<style type="text/css">
	.st0{fill:#789BA9;}
</style>
<g>
	<path class="st0" d="M32,19.2c0,2.3-1.9,4.2-4.2,4.2c-0.8,0-1.5-0.2-2.2-0.6c-0.7,0.2-1.5,0.4-2.3,0.4c-0.7,0-1.3-0.1-1.8-0.3
		c-1,1-2.4,1.6-4,1.6c-1.5,0-2.9-0.6-4-1.6c-0.6,0.4-1.3,0.6-2,0.6c-0.4,0-0.7-0.1-1.1-0.2c1.7-1.2,2.8-3.2,2.8-5.4
		c0-3.7-3-6.6-6.6-6.6c-0.4,0-0.8,0-1.1,0.1c0.8-2.7,3.3-4.7,6.3-4.7c2.8,0,5.1,1.7,6.1,4.2c0.7-0.3,1.4-0.4,2.1-0.4
		c2.9,0,5.4,2.2,5.7,5c0.6-0.3,1.3-0.5,2-0.5C30.1,15,32,16.9,32,19.2z M10.4,23.4c-1.1,0.8-2.4,1.2-3.8,1.2C3,24.6,0,21.6,0,18
		c0-3.3,2.4-6,5.5-6.5c0.4-0.1,0.7-0.1,1.1-0.1c3.7,0,6.6,3,6.6,6.6C13.3,20.2,12.1,22.2,10.4,23.4z M13,18c0-3.5-2.8-6.4-6.4-6.4
		c-3.5,0-6.4,2.8-6.4,6.4c0,3.5,2.8,6.4,6.4,6.4C10.1,24.3,13,21.5,13,18z"/>
	<path class="st0" d="M11,17.1c0.2,0.3,0.2,0.8,0.2,1.4c0,1.2-0.2,2.5-0.7,3.8c-0.8,0.8-1.9,1.3-3,1.4c0-0.2,0-0.4,0-0.6
		c0-1.4,0.3-2.8,0.8-4.3c0.5-1.5,1.1-2.2,1.9-2.2C10.5,16.6,10.8,16.8,11,17.1z M2.7,14.7l0,0.1H1.8c-0.6,0.9-1,2-1,3.2
		c0,0.6,0.1,1.2,0.3,1.8c0.3-0.4,0.8-0.8,1.4-1.2c0.7-0.4,1.9-1.3,1.9-1.3c1.7-1.2,2-1.7,1.9-2.8c0-0.5-0.2-0.9-0.5-1.2
		C5.5,13,5,12.9,4.5,12.9c-0.5,0-1,0.2-1.3,0.5C3,13.5,2.8,13.9,2.7,14.7z M5.4,22.7h1.3H7l0.4-2.1H5.5c0.2-1,0.6-1.9,1.3-2.7
		c1-1.2,2.2-1.8,3.5-1.8c0.9,0,1.6,0.3,2,0.8c-0.5-2.6-2.8-4.6-5.6-4.7c0.3,0.1,0.5,0.1,0.8,0.3c0.6,0.4,1,0.9,1.1,1.8
		c0.1,0.5,0,0.9-0.2,1.2c-0.2,0.6-0.7,1-2.4,1.9c0,0-1.5,0.7-2.1,1.1c-0.6,0.4-1.2,0.9-2,2.1l3.1,0l-0.4,2.1H3.3
		c0.7,0.5,1.5,0.9,2.4,1C5.5,23.4,5.5,23,5.4,22.7z"/>
</g>
</svg>
